<?xml version="1.0" standalone="no"?><!DOCTYPE svg PUBLIC "-//W3C//DTD SVG 1.1//EN" "http://www.w3.org/Graphics/SVG/1.1/DTD/svg11.dtd"><svg t="1526634796760" class="icon" style="" viewBox="0 0 1024 1024" version="1.1" xmlns="http://www.w3.org/2000/svg" p-id="1277" xmlns:xlink="http://www.w3.org/1999/xlink" width="180" height="180"><defs><style type="text/css"></style></defs><path d="M512 0C229.488 0 0 229.488 0 512s229.488 512 512 512 512-229.488 512-512S794.512 0 512 0z m-53.024 949.936c-216.688-26.512-384-211.2-384-435.2 0-33.824 4.56-66.736 11.888-97.824l262.4 262.4v54.864c0 60.336 49.36 109.712 109.712 109.712v106.048z m378.512-141.712a108.368 108.368 0 0 0-104.224-76.8H678.4V567.776A55.408 55.408 0 0 0 622.624 512H285.28V402.288H403.2a55.408 55.408 0 0 0 55.776-55.776v-108.8h107.888c61.248 0 111.536-50.288 111.536-111.536V105.12C839.312 170.08 952.688 327.312 952.688 512c0 114.288-42.976 217.6-115.2 296.224z" p-id="1278"></path></svg>